<svg width="40" height="40" viewBox="0 0 40 40" fill="none" xmlns="http://www.w3.org/2000/svg">
<rect width="40" height="40" rx="20" fill="#0073EA"/>
<mask id="mask0_16_23" style="mask-type:alpha" maskUnits="userSpaceOnUse" x="10" y="10" width="20" height="20">
<rect x="10" y="10" width="20" height="20" fill="#D9D9D9"/>
</mask>
<g mask="url(#mask0_16_23)">
<path d="M14.1667 25.8333H15.3542L23.5 17.6875L22.3125 16.5L14.1667 24.6458V25.8333ZM12.5 27.5V23.9583L23.5 12.9792C23.6667 12.8264 23.8507 12.7083 24.0521 12.625C24.2535 12.5417 24.4653 12.5 24.6875 12.5C24.9097 12.5 25.125 12.5417 25.3333 12.625C25.5417 12.7083 25.7222 12.8333 25.875 13L27.0208 14.1667C27.1875 14.3194 27.309 14.5 27.3854 14.7083C27.4618 14.9167 27.5 15.125 27.5 15.3333C27.5 15.5556 27.4618 15.7674 27.3854 15.9687C27.309 16.1701 27.1875 16.3542 27.0208 16.5208L16.0417 27.5H12.5ZM22.8958 17.1042L22.3125 16.5L23.5 17.6875L22.8958 17.1042Z" fill="white"/>
</g>
</svg>
